<svg id="svgcontent" width="300mm" height="210mm" viewBox="0 0 3000 2100" xmlns="http://www.w3.org/2000/svg" xmlns:svg="http://www.w3.org/2000/svg" xmlns:xlink="http://www.w3.org/1999/xlink" data-top="-57" data-left="-352" data-zoom="0.262" data-en_af="undefined" data-en_diode="undefined" data-rotary_mode="false" data-engrave_dpi="medium" style="will-change: scroll-position, contents, transform; shape-rendering: optimizespeed;">
 <defs>
  <symbol data-image-symbol="svg_1_image" data-bbox="{&quot;x&quot;:0,&quot;y&quot;:0,&quot;width&quot;:1600,&quot;height&quot;:800}" id="svg_1" overflow="visible">
   <path id="svg_2" d="m1100,740l200,0l0,-30l-200,0l0,30z" vector-effect="non-scaling-stroke" stroke-width="1px" stroke="#000000" fill="none"/>
   <path id="svg_3" d="m1100,100l0,30l200,0l0,-30l-200,0z" vector-effect="non-scaling-stroke" stroke-width="1px" stroke="#000000" fill="none"/>
   <path id="svg_4" d="m1600,800l0,-300l-30,0l0,-200l30,0l0,-300l-200,0l0,30l-400,0l0,-30l-100,0l0,30l-200,0l0,-30l-100,0l0,30l-400,0l0,-30l-200,0l0,300l30,0l0,200l-30,0l0,300l1600,0z" vector-effect="non-scaling-stroke" stroke-width="1px" stroke="#000000" fill="none"/>
   <path id="svg_5" d="m500,130l0,-30l-200,0l0,30l200,0z" vector-effect="non-scaling-stroke" stroke-width="1px" stroke="#000000" fill="none"/>
   <path id="svg_6" d="m500,710l-200,0l0,30l200,0l0,-30z" vector-effect="non-scaling-stroke" stroke-width="1px" stroke="#000000" fill="none"/>
  </symbol>
  <symbol data-origin-symbol="svg_1" id="svg_1_image" overflow="visible">
   <image filter="url(#filter#000000)" href="blob:file:///a6348b08-7907-4a0e-97af-36b50a1f72ad" height="800" width="1600" y="0" x="0"/>
  </symbol>
 </defs>
 <g data-configName="木板 - 3mm 切割" data-zstep="0" data-repeat="1" data-strength="45" data-speed="5" data-color="#000000" class="layer">
  <title>上板</title>
  <filter color-interpolation-filters="sRGB" primitiveUnits="userSpaceOnUse" filterUnits="objectBoundingBox" id="filter#000000">
   <feColorMatrix values="1 0 0 0 0, 0 1 0 0 0, 0 0 1 0 0, 0 0 0 1 0" type="matrix"/>
  </filter>
  <use x="184.75499" y="187.13249" data-xform="x=0 y=0 width=1600 height=800 " data-ratiofixed="true" data-dxf="true" xlink:href="#svg_1" id="svg_7"/>
 </g>
 <g data-configName="0" data-diode="0" data-zstep="0" data-height="-3" data-repeat="1" data-strength="60" data-speed="100" data-color="#3F51B5" class="layer">
  <title>Made in Openlab</title>
  <filter color-interpolation-filters="sRGB" primitiveUnits="userSpaceOnUse" filterUnits="objectBoundingBox" id="filter#3F51B5">
   <feColorMatrix values="1 0 0 0 0.24705882352941178, 0 1 0 0 0.3176470588235294, 0 0 1 0 0.7098039215686275, 0 0 0 1 0" type="matrix"/>
  </filter>
  <text font-weight="400" font-style="normal" vector-effect="non-scaling-stroke" xml:space="preserve" data-ratiofixed="true" text-anchor="undefined" font-postscript="MicrosoftJhengHeiRegular" font-family="微軟正黑體" font-size="50" id="svg_11" y="830.85301" x="1267.33198" fill-opacity="0" stroke-width="2" stroke="#3F51B5" fill="none">
   <tspan y="830.84859" x="1267.33198" vector-effect="non-scaling-stroke">Made in Openlab</tspan>
  </text>
 </g>
 <g data-configName="0" data-diode="0" data-zstep="0" data-height="-3" data-repeat="1" data-strength="30" data-speed="150" data-color="#F44336" class="layer">
  <title>圖案</title>
  <filter color-interpolation-filters="sRGB" primitiveUnits="userSpaceOnUse" filterUnits="objectBoundingBox" id="filter#F44336">
   <feColorMatrix values="1 0 0 0 0.9568627450980393, 0 1 0 0 0.2627450980392157, 0 0 1 0 0.21176470588235294, 0 0 0 1 0" type="matrix"/>
  </filter>
 </g>
 <g data-configName="0" data-diode="0" data-zstep="0" data-height="-3" data-repeat="1" data-strength="30" data-speed="150" data-color="#FFC107" class="layer">
  <title>圖案2</title>
  <filter color-interpolation-filters="sRGB" primitiveUnits="userSpaceOnUse" filterUnits="objectBoundingBox" id="filter#FFC107">
   <feColorMatrix values="1 0 0 0 1, 0 1 0 0 0.7568627450980392, 0 0 1 0 0.027450980392156862, 0 0 0 1 0" type="matrix"/>
  </filter>
 </g>
</svg>